<svg width="167" height="30" viewBox="0 0 167 30" fill="none" xmlns="http://www.w3.org/2000/svg">
<g clip-path="url(#clip0_452_1793)">
<path fill-rule="evenodd" clip-rule="evenodd" d="M13.4063 21.4199L6.04459 14.2186C4.79367 12.9948 2.76554 12.9948 1.51423 14.2186C0.263322 15.4422 0.263322 17.4261 1.51423 18.6501L11.1411 28.0674C12.392 29.291 14.4206 29.291 15.6715 28.0674L24.7326 19.2033L20.2026 14.7716L13.4063 21.4199Z" fill="#16B8A2"/>
<path fill-rule="evenodd" clip-rule="evenodd" d="M41.1546 7.57195L26.9986 21.4195L12.841 7.57038C11.5897 6.34633 9.56153 6.34633 8.31062 7.57038C7.05971 8.79404 7.05971 10.778 8.31062 12.002L24.7333 28.067C25.9843 29.2907 28.0125 29.2907 29.2637 28.067L45.685 12.0036C46.9358 10.7795 46.9358 8.79561 45.685 7.57195C44.4336 6.34829 42.4054 6.34829 41.1546 7.57195Z" fill="#FFB41F"/>
<path fill-rule="evenodd" clip-rule="evenodd" d="M52.4807 18.6528L42.8554 28.0684C41.6045 29.2921 39.5763 29.2921 38.3254 28.0684L15.1063 5.35516C13.8553 4.1315 13.8553 2.14756 15.1063 0.923898C16.3576 -0.300153 18.3857 -0.300153 19.6366 0.923898L40.5902 21.4209L47.9503 14.2212C49.2016 12.9975 51.2297 12.9975 52.4807 14.2212C53.7316 15.4453 53.7316 17.4292 52.4807 18.6528Z" fill="#F56358"/>
<path fill-rule="evenodd" clip-rule="evenodd" d="M38.8889 0.925557C37.6379 -0.298102 35.6099 -0.298102 34.3585 0.925557L20.2026 14.7731L24.7326 19.2047L38.8889 5.3572C40.1399 4.13315 40.1399 2.14921 38.8889 0.925557Z" fill="#16B8A2"/>
<path fill-rule="evenodd" clip-rule="evenodd" d="M70.0026 3.08804H66.0634V25.7239H80.4969V22.3055H70.0026V3.08804ZM89.0225 9.89419C91.4177 9.89419 93.0249 10.8489 93.9074 12.0192L94.0964 10.2022H97.4999V25.7239H94.0964L93.9074 23.907C93.0249 25.0772 91.4177 26.0319 89.0225 26.0319C84.705 26.0319 81.7743 22.6134 81.7743 17.963C81.7743 13.2819 84.705 9.89419 89.0225 9.89419ZM89.8419 13.1587C87.3838 13.1587 85.619 15.0374 85.619 17.963C85.619 20.8888 87.3838 22.7675 89.8419 22.7675C91.7328 22.7675 92.8674 21.7819 93.7182 20.4576V15.4685C92.8674 14.1443 91.7328 13.1587 89.8419 13.1587ZM107.034 4.99745H103.252V10.2022H100.258V13.3436H103.252V20.2421C103.252 23.9993 105.553 26.0319 109.177 26.0319C110.753 26.0319 111.919 25.6008 112.707 25.108L111.698 22.2131C111.225 22.4903 110.532 22.7058 109.524 22.7058C108.042 22.7058 107.034 21.7819 107.034 20.2112V13.3436H111.824V10.2022H107.034V4.99745ZM120.066 4.99745H116.285V10.2022H113.291V13.3436H116.285V20.2421C116.285 23.9993 118.585 26.0319 122.209 26.0319C123.785 26.0319 124.951 25.6008 125.739 25.108L124.73 22.2131C124.258 22.4903 123.564 22.7058 122.556 22.7058C121.075 22.7058 120.066 21.7819 120.066 20.2112V13.3436H124.856V10.2022H120.066V4.99745ZM132.058 10.2022H128.277V25.7239H132.058V10.2022ZM130.168 2.96484C128.844 2.96484 127.835 3.91955 127.835 5.24383C127.835 6.5681 128.844 7.52281 130.168 7.52281C131.523 7.52281 132.531 6.5681 132.531 5.24383C132.531 3.91955 131.523 2.96484 130.168 2.96484ZM143.484 9.89419C138.599 9.89419 135.353 13.2819 135.353 17.963C135.353 22.6134 138.631 26.0319 143.515 26.0319C146.383 26.0319 148.557 24.7693 149.975 22.6134L147.265 20.5501C146.508 21.7819 145.28 22.7983 143.547 22.7983C140.742 22.7983 139.197 20.6732 139.197 17.963C139.197 15.2221 140.679 13.128 143.515 13.128C145.28 13.128 146.445 14.1134 147.17 15.3453L149.912 13.3128C148.494 11.1569 146.383 9.89419 143.484 9.89419ZM159.226 9.89419C164.111 9.89419 166.506 13.4667 166.506 17.8091V19.1025H155.286C155.381 21.5663 156.894 22.9214 159.541 22.9214C161.4 22.9214 162.755 22.1207 163.48 21.1352L166.096 23.2293C164.52 25.0772 162.441 26.0319 159.51 26.0319C154.594 26.0319 151.442 22.6442 151.442 17.9938C151.442 13.3128 154.657 9.89419 159.226 9.89419ZM159.163 12.8507C156.926 12.8507 155.412 14.2982 155.286 16.454H162.788C162.692 14.329 161.432 12.8507 159.163 12.8507Z" fill="#0E0E29"/>
</g>
<defs>
<clipPath id="clip0_452_1793">
<rect width="166.1" height="30" fill="white" transform="translate(0.57605)"/>
</clipPath>
</defs>
</svg>
