<svg width="134" height="30" viewBox="0 0 134 30" fill="none" xmlns="http://www.w3.org/2000/svg">
<g clip-path="url(#clip0_452_1790)">
<path fill-rule="evenodd" clip-rule="evenodd" d="M103.587 20.6878C107.018 20.6878 109.808 18.0249 109.808 14.7519C109.808 11.4787 107.018 8.81592 103.587 8.81592C100.158 8.81592 97.3671 11.4787 97.3671 14.7519C97.3671 18.0249 100.158 20.6878 103.587 20.6878ZM109.808 0H109.977H112.755V23.52H109.808V21.1716C108.107 22.6759 105.914 23.4999 103.587 23.4999C98.5329 23.4999 94.4205 19.5755 94.4205 14.7519C94.4205 9.92796 98.5329 6.00372 103.587 6.00372C105.914 6.00372 108.107 6.82764 109.808 8.33202V0ZM42.4728 20.5841C45.9027 20.5841 48.6931 17.9213 48.6931 14.6482C48.6931 11.3752 45.9027 8.71242 42.4728 8.71242C39.0428 8.71242 36.2524 11.3752 36.2524 14.6482C36.2524 17.9213 39.0428 20.5841 42.4728 20.5841ZM36.2524 8.2287C37.9532 6.72432 40.1467 5.90027 42.4728 5.90027C47.5275 5.90027 51.64 9.82464 51.64 14.6482C51.64 19.4719 47.5275 23.3963 42.4728 23.3963C40.1467 23.3963 37.9532 22.5724 36.2524 21.0679V29.4H33.3055V5.88H36.2524V8.2287ZM57.2627 13.2824C57.926 10.6241 60.3972 8.71542 63.216 8.71542C65.9981 8.71542 68.3285 10.5834 68.9496 13.2824H57.2627ZM63.216 5.88C58.237 5.88 54.1864 9.83682 54.1864 14.7C54.1864 19.5634 58.237 23.52 63.216 23.52C66.0042 23.52 68.5632 22.5004 70.238 20.7226L71.108 19.7984L71.2202 19.6792L71.0982 19.5692L69.2065 17.8696L69.0845 17.7598L68.9718 17.879L68.1017 18.8033C66.992 19.9813 65.1656 20.6848 63.216 20.6848C60.3972 20.6848 57.9261 18.776 57.2627 16.1176H72.0114V14.7C72.0114 9.7542 68.1479 5.88 63.216 5.88ZM130.179 14.7001C130.179 18 127.389 20.6847 123.959 20.6847C120.529 20.6847 117.739 18 117.739 14.7001C117.739 11.4 120.529 8.7153 123.959 8.7153C127.389 8.7153 130.179 11.4 130.179 14.7001ZM123.959 5.88C118.904 5.88 114.792 9.83664 114.792 14.7001C114.792 19.5634 118.904 23.52 123.959 23.52C129.014 23.52 133.126 19.5634 133.126 14.7001C133.126 9.83664 129.014 5.88 123.959 5.88ZM82.9608 5.88C80.9133 5.88 78.9625 6.6393 77.4269 8.02608V5.88H74.558V23.52H77.4269V14.518C77.4269 11.3063 79.9095 8.69328 82.9608 8.69328C86.0128 8.69328 88.496 11.3063 88.496 14.518V23.52H91.3643V14.518C91.3643 9.75504 87.5945 5.88 82.9608 5.88Z" fill="#1A2022"/>
<path fill-rule="evenodd" clip-rule="evenodd" d="M0.0319824 16.7996H13.8959V29.9996L27.76 16.7996V3.59961H13.8959L0.0319824 16.7996Z" fill="#FF4876"/>
</g>
<defs>
<clipPath id="clip0_452_1790">
<rect width="133.094" height="30" fill="white" transform="translate(0.0319824)"/>
</clipPath>
</defs>
</svg>
