<svg width="150" height="30" viewBox="0 0 150 30" fill="none" xmlns="http://www.w3.org/2000/svg">
<g clip-path="url(#clip0_452_1789)">
<path fill-rule="evenodd" clip-rule="evenodd" d="M14.0749 13.637L14.3294 13.5678C16.2254 13.0143 18.0853 12.3496 19.899 11.5774C21.7387 10.874 23.465 9.91612 25.0247 8.73314C26.6804 7.4494 27.9267 5.73237 28.6174 3.78314C28.7663 3.46229 28.8756 3.12531 28.9429 2.7793C26.4511 6.0966 16.5726 6.44276 16.5726 6.44276L18.9046 4.36007C12.118 4.38285 5.5083 6.47257 0 10.337C3.73078 10.7266 7.23992 12.2551 10.0264 14.7043C11.3641 14.3005 12.7313 14.012 14.0749 13.6485V13.637ZM29.5644 13.3081C23.2791 13.0243 16.9909 13.8051 10.9794 15.6158C12.2421 16.9002 13.296 18.3652 14.1045 19.9601C19.0822 17.2601 25.9835 13.8101 29.5644 13.3197V13.3081ZM14.7319 21.3389C15.3223 22.8198 15.7007 24.3728 15.8564 25.9543L24.5393 17.2601L14.7319 21.3389ZM19.2894 25.6024V25.5101C19.2879 25.4729 19.2755 25.4368 19.2538 25.4062C19.234 25.3773 19.2007 25.36 19.1651 25.3601H19.242C19.2892 25.3295 19.3162 25.2768 19.313 25.2216C19.3212 25.1472 19.2777 25.0765 19.2065 25.0485C19.1459 25.0372 19.0836 25.0372 19.023 25.0485H18.7803V25.7004H18.9105V25.4639H19.0052C19.0461 25.4541 19.0887 25.4541 19.1295 25.4639C19.17 25.4959 19.1903 25.5463 19.1828 25.5966V25.6947H19.313L19.2894 25.6024ZM18.9046 25.0947H18.9875C19.0323 25.0846 19.0788 25.0846 19.1236 25.0947C19.1496 25.1133 19.1632 25.1442 19.1591 25.1754C19.1642 25.216 19.1395 25.2544 19.0999 25.2678C19.0647 25.2733 19.0287 25.2733 18.9934 25.2678H18.9046V25.0485V25.0947Z" fill="#282828"/>
<path fill-rule="evenodd" clip-rule="evenodd" d="M19.4491 24.9053C19.3372 24.7888 19.1808 24.7227 19.0171 24.7227C18.8533 24.7227 18.6969 24.7888 18.585 24.9053C18.4691 25.016 18.4049 25.1683 18.4074 25.3264C18.4049 25.4846 18.4691 25.6369 18.585 25.7476C18.6969 25.8641 18.8533 25.9302 19.0171 25.9302C19.1808 25.9302 19.3372 25.8641 19.4491 25.7476C19.5687 25.6385 19.6365 25.486 19.6365 25.3264C19.6365 25.1668 19.5687 25.0144 19.4491 24.9053ZM19.0171 25.8168C18.8834 25.8185 18.7549 25.7663 18.6619 25.6726C18.4695 25.4799 18.4695 25.1729 18.6619 24.9803C18.7554 24.8873 18.8834 24.8348 19.0171 24.8348C19.1507 24.8348 19.2787 24.8873 19.3722 24.9803C19.5647 25.1729 19.5647 25.4799 19.3722 25.6726C19.2792 25.7663 19.1508 25.8185 19.0171 25.8168Z" fill="#282828"/>
<path fill-rule="evenodd" clip-rule="evenodd" d="M82.3067 17.5543C80.8858 17.5543 79.5727 16.8153 78.8622 15.6158C78.1517 14.4163 78.1517 12.9384 78.8622 11.7389C79.5727 10.5394 80.8858 9.80042 82.3067 9.80042C84.5034 9.80042 86.2842 11.5362 86.2842 13.6773C86.2842 15.8185 84.5034 17.5543 82.3067 17.5543ZM82.3067 5.57157C78.8722 5.6112 75.8188 7.7121 74.6303 10.8533C73.4419 13.9945 74.3648 17.5248 76.9507 19.7285C79.5365 21.9322 83.249 22.3525 86.2842 20.785V21.7658C86.2809 23.9057 84.5021 25.6396 82.3067 25.6427C81.1103 25.6427 80.1405 26.5881 80.1405 27.7543C80.1405 28.9204 81.1103 29.8658 82.3067 29.8658C86.8761 29.8502 90.5771 26.2427 90.5931 21.7889V13.712C90.5771 9.25811 86.8761 5.65061 82.3067 5.63504V5.57157ZM41.3605 17.5543C39.1639 17.5575 37.3805 15.8243 37.3772 13.6831C37.3739 11.5419 39.152 9.80361 41.3487 9.80042C43.5454 9.79723 45.3288 11.5304 45.332 13.6716C45.3353 15.8127 43.5572 17.5511 41.3605 17.5543ZM41.3605 5.57157C36.7912 5.58715 33.0902 9.19465 33.0742 13.6485V25.187C33.0742 25.9413 33.4871 26.6384 34.1574 27.0156C34.8276 27.3928 35.6534 27.3928 36.3236 27.0156C36.9939 26.6384 37.4068 25.9413 37.4068 25.187V20.7677C38.6241 21.4176 39.9903 21.757 41.3783 21.7543C45.9695 21.7543 49.6912 18.1266 49.6912 13.6514C49.6912 9.17619 45.9695 5.5485 41.3783 5.5485L41.3605 5.57157ZM64.6687 5.57157C60.0994 5.58715 56.3984 9.19465 56.3824 13.6485V19.637C56.3824 20.8031 57.3523 21.7485 58.5487 21.7485C59.7451 21.7485 60.715 20.8031 60.715 19.637V13.6773C60.715 11.5394 62.4931 9.80619 64.6865 9.80619C66.8799 9.80619 68.658 11.5394 68.658 13.6773V19.6658C68.6162 20.4455 69.0191 21.184 69.7057 21.5861C70.3922 21.9882 71.2504 21.9882 71.937 21.5861C72.6236 21.184 73.0265 20.4455 72.9846 19.6658V13.6773C72.9687 9.2235 69.2676 5.616 64.6983 5.60042L64.6687 5.57157ZM117.595 17.485C115.398 17.4882 113.615 15.755 113.611 13.6139C113.608 11.4727 115.386 9.73438 117.583 9.73119C119.779 9.728 121.563 11.4612 121.566 13.6023C121.569 15.7435 119.791 17.4819 117.595 17.485ZM117.595 5.50234C113.018 5.50234 109.308 9.1185 109.308 13.5793C109.308 18.04 113.018 21.6562 117.595 21.6562C122.171 21.6562 125.881 18.04 125.881 13.5793C125.865 9.12542 122.164 5.51792 117.595 5.50234ZM99.9507 17.5543C97.754 17.5543 95.9732 15.8185 95.9732 13.6773C95.9732 11.5362 97.754 9.80042 99.9507 9.80042C102.147 9.80042 103.928 11.5362 103.928 13.6773C103.925 15.8172 102.146 17.5511 99.9507 17.5543ZM106.088 0.033113C104.892 0.033113 103.922 0.978481 103.922 2.14465V6.56388C100.646 4.82692 96.5837 5.43688 93.996 8.05419C91.4083 10.6715 90.933 14.6513 92.8347 17.778C94.7365 20.9047 98.5467 22.408 102.144 21.4509C105.742 20.4938 108.24 17.3122 108.249 13.6773V2.13888C108.249 0.972712 107.279 0.0273438 106.083 0.0273438L106.088 0.033113ZM52.8607 5.57157C51.6643 5.57157 50.6945 6.51694 50.6945 7.68311V19.66C50.6945 20.8262 51.6643 21.7716 52.8607 21.7716C54.0571 21.7716 55.027 20.8262 55.027 19.66V7.68888C55.027 6.52271 54.0571 5.57734 52.8607 5.57734V5.57157ZM50.6945 2.14465C50.6945 3.31082 51.6643 4.25619 52.8607 4.25619C54.0571 4.25619 55.027 3.31082 55.027 2.14465C55.027 0.978481 54.0571 0.033113 52.8607 0.033113C51.6643 0.033113 50.6945 0.978481 50.6945 2.14465ZM138.299 21.7081C138.874 21.7081 139.426 21.4849 139.832 21.0876C140.239 20.6904 140.466 20.1518 140.465 19.5908V10.6139C140.465 10.1264 140.87 9.73119 141.37 9.73119C143.565 9.73437 145.342 11.4692 145.342 13.6081V19.5677C145.342 20.7339 146.312 21.6793 147.508 21.6793C148.705 21.6793 149.674 20.7339 149.674 19.5677V13.6081C149.658 9.15427 145.957 5.54677 141.388 5.53119C140.336 5.52849 139.292 5.7244 138.316 6.10811C137.34 5.72454 136.297 5.52864 135.244 5.53119C130.676 5.55023 126.978 9.15542 126.958 13.6081V19.5677C126.958 20.7339 127.928 21.6793 129.124 21.6793C130.321 21.6793 131.291 20.7339 131.291 19.5677V13.6081C131.291 11.4692 133.068 9.73437 135.262 9.73119C135.762 9.73119 136.168 10.1264 136.168 10.6139V19.5677C136.166 20.1287 136.394 20.6673 136.8 21.0645C137.207 21.4618 137.758 21.685 138.334 21.685L138.299 21.7081Z" fill="#282828"/>
</g>
<defs>
<clipPath id="clip0_452_1789">
<rect width="149.745" height="30" fill="white"/>
</clipPath>
</defs>
</svg>
