<svg width="96" height="69" viewBox="0 0 96 69" fill="none" xmlns="http://www.w3.org/2000/svg">
<path d="M36.5 9.99986C36.5 13.1665 37.7 20.1999 42.5 22.9999M68.5 17.4999C67.5 19.6665 66.1 25.1999 68.5 29.9999M94.5 12.9999C92 14.9999 85.4 22.0999 79 34.4999M1 68.0007C2.70385 61.8952 8.0366 52.2576 16.9983 55.2258M16.9983 55.2258C18.5559 55.7417 20.2231 56.6384 22 58.0007C22.6667 58.6671 23.8 60.6 21 61C19.2553 61.2492 17.873 58.3407 16.9983 55.2258ZM16.9983 55.2258C16.4691 53.3416 16.1256 51.3819 16 49.9999C15.4401 43.8407 21.2808 34.7392 29.2733 31.2797C38.2385 27.3991 48.3009 33.5813 56.8275 38.3489C59.5604 39.877 62.7668 41.7404 66.5 44C60.8333 38.1667 48 21.4 42 1" stroke="#FF670F" stroke-width="1.5" stroke-linecap="round" stroke-linejoin="round"/>
</svg>
